<svg xmlns="http://www.w3.org/2000/svg" viewBox="0 0 300 120" height="120" width="300"><g fill-rule="evenodd" fill="none"><path fill="#fae100" d="M240 120H60C26.867 120 0 93.14 0 60 0 26.867 26.867 0 60 0h180c33.133 0 60 26.867 60 60 0 33.14-26.867 60-60 60"/><path fill="#1e1e1e" d="M80.018 29.905c-17.47 0-31.623 11.183-31.623 24.99 0 8.276 5.108 15.607 12.961 20.15L57.631 88.96c-.353 1.334 1.136 2.392 2.279 1.623l16.15-10.908a40.71 40.71 0 003.958.205c17.47 0 31.63-11.19 31.63-24.984 0-13.807-14.16-24.99-31.63-24.99M141.468 44.109v24.546c.6.078 2.102.226 3.528.226 7.803 0 10.809-5.482 10.809-14.111 0-7.585-2.025-12.164-8.255-12.164-2.025 0-4.283.607-6.082 1.503m0 32.201v15.395H130.51V34.951h7.725l1.355 3.605c2.328-2.328 5.856-4.805 11.564-4.805 10.731 0 15.84 8.03 15.762 21.019 0 13.589-7.881 22.295-19.142 22.295-2.18 0-3.83-.155-6.307-.755M196.372 65.426V57.92h-5.031c-5.63 0-8.48 2.032-8.48 6.082 0 3.076 1.58 4.58 4.804 4.58 2.999 0 6.83-1.504 8.707-3.155m-6.23-14.485h6.23v-1.354c0-4.502-2.555-6.604-6.978-6.604-3.38 0-7.733.973-11.26 2.702l-3.007-7.359c3.902-2.702 9.913-4.579 15.24-4.579 10.513 0 16.214 5.553 16.214 16.143v26.05h-7.733l-1.129-3.458c-4.424 3.231-8.48 4.579-12.156 4.579-8.03 0-12.538-4.805-12.538-12.912 0-8.629 6.004-13.208 17.117-13.208M238.774 71.735c-3.831 10.209-8.41 17.638-15.092 21.766l-6.752-6.23c3.902-3.373 6.681-6.682 9.08-11.112L211.448 36.45l10.886-2.928 9.307 32.208 9.235-32.356 10.732 3.006z"/></g></svg>