<?xml version="1.0" standalone="no"?>
<!DOCTYPE svg PUBLIC "-//W3C//DTD SVG 20010904//EN"
 "http://www.w3.org/TR/2001/REC-SVG-20010904/DTD/svg10.dtd">
<svg version="1.0" xmlns="http://www.w3.org/2000/svg"
 width="429.000000pt" height="350.000000pt" viewBox="0 0 429.000000 350.000000"
 preserveAspectRatio="xMidYMid meet">

<g transform="translate(0.000000,350.000000) scale(0.100000,-0.100000)"
fill="#000000" stroke="none">
<path d="M125 3476 c-59 -27 -77 -46 -104 -106 -20 -45 -21 -58 -21 -1707 l0
-1663 283 0 c276 0 283 1 333 24 52 24 92 66 116 121 10 23 14 140 18 482 l5
452 400 -492 c220 -270 419 -506 443 -524 80 -61 105 -64 534 -61 l386 3 -98
120 c-54 66 -312 383 -573 704 l-476 585 37 46 c20 25 127 157 237 293 l200
247 428 0 427 0 0 -674 c0 -428 4 -703 11 -752 38 -273 210 -473 474 -550 51
-15 115 -18 426 -21 251 -3 380 -1 409 7 51 14 117 72 141 125 16 35 19 69 19
262 l0 222 -292 3 -293 3 -47 27 c-34 21 -53 41 -72 80 l-26 52 0 607 0 607
213 5 c218 5 290 16 398 56 124 47 197 120 218 222 6 28 11 160 11 295 l0 246
-50 -45 c-29 -26 -80 -58 -123 -75 -121 -51 -200 -63 -444 -69 l-223 -6 0 437
0 436 -285 0 c-236 0 -292 -3 -323 -16 -47 -19 -88 -58 -115 -109 -21 -39 -22
-50 -22 -390 l0 -350 -525 -5 c-577 -6 -575 -6 -708 -71 -96 -47 -172 -126
-457 -478 l-260 -320 -3 869 -2 870 -288 0 c-280 0 -288 -1 -337 -24z"/>
</g>
</svg>
