<svg width="841.89" height="595.28" xmlns="http://www.w3.org/2000/svg"><style type="text/css">.st0{fill:none;stroke:#0099DA;stroke-width:0.25;} .st1{fill:#EC008C;}</style><g><title>background</title><rect fill="none" id="canvas_background" height="602" width="802" y="-1" x="-1"/></g><g><title>Layer 1</title><g stroke="null" id="svg_1"><line stroke="null" id="svg_2" y2="5.99396" x2="636.52977" y1="5.99396" x1="626.11906" class="st0"/><g stroke="null" id="svg_3"><g stroke="null" id="svg_4"><path stroke="null" id="svg_5" d="m72.08007,122.49926l92.74995,0l0,283.64449c0,70.88746 23.6607,113.76065 84.32674,113.76065c71.54996,0 97.76602,-33.88212 97.76602,-125.87493l0,-271.53021l92.65531,0l0,277.20878c0,134.2035 -68.33211,191.65168 -189.75883,191.65168c-119.53386,0 -177.73919,-56.88033 -177.73919,-196.7624l0,-272.09807z" class="st1"/><polygon stroke="null" id="svg_6" points="597.6314697265625,7.792119026184082 674.7655639648438,7.792119026184082 674.7655639648438,122.49916076660156 788.8099975585938,122.49916076660156 788.8099975585938,195.18505859375 674.7655639648438,195.18505859375 674.7655639648438,308.56695556640625 597.6314697265625,308.56695556640625 597.6314697265625,195.18505859375 483.5869445800781,195.18505859375 483.5869445800781,122.49916076660156 597.6314697265625,122.49916076660156 " class="st1"/></g></g></g></g></svg>
